<svg width="24" height="24" viewBox="0 0 24 24" fill="none" xmlns="http://www.w3.org/2000/svg">
<path d="M7 12.6316H6.606C6.21094 12.6315 5.82469 12.7484 5.496 12.9676L3 14.6316V5.63159C3 5.10116 3.21071 4.59245 3.58579 4.21738C3.96086 3.84231 4.46957 3.63159 5 3.63159H12C12.5304 3.63159 13.0391 3.84231 13.4142 4.21738C13.7893 4.59245 14 5.10116 14 5.63159V7.63159" stroke="#405C93" stroke-width="2" stroke-linecap="round" stroke-linejoin="round"/>
<path d="M12 10H19C19.5304 10 20.0391 10.2107 20.4142 10.5858C20.7893 10.9609 21 11.4696 21 12V21L18.504 19.336C18.1753 19.1168 17.7891 18.9999 17.394 19H12C11.4696 19 10.9609 18.7893 10.5858 18.4142C10.2107 18.0392 10 17.5304 10 17V12C10 11.4696 10.2107 10.9609 10.5858 10.5858C10.9609 10.2107 11.4696 10 12 10Z" fill="#405C93" stroke="#405C93" stroke-width="2" stroke-linecap="round" stroke-linejoin="round"/>
</svg>
