<svg width="24" height="24" viewBox="0 0 24 24" fill="none" xmlns="http://www.w3.org/2000/svg">
<path opacity="0.5" d="M2 12C2 7.286 2 4.929 3.464 3.464C4.93 2 7.286 2 12 2C16.714 2 19.071 2 20.535 3.464C22 4.93 22 7.286 22 12C22 16.714 22 19.071 20.535 20.535C19.072 22 16.714 22 12 22C7.286 22 4.929 22 3.464 20.535C2 19.072 2 16.714 2 12Z" fill="#934077"/>
<path d="M17.5762 10.48C17.6979 10.3266 17.7548 10.1317 17.7347 9.93697C17.7146 9.7422 17.6192 9.56301 17.4688 9.43766C17.3184 9.31232 17.1249 9.25076 16.9297 9.26615C16.7345 9.28153 16.5531 9.37264 16.4242 9.52L14.6272 11.676C14.2572 12.121 14.0282 12.392 13.8412 12.561C13.7925 12.6088 13.7377 12.6498 13.6782 12.683L13.6672 12.688L13.6592 12.684L13.6562 12.683C13.5963 12.6499 13.5411 12.6088 13.4922 12.561C13.3052 12.391 13.0772 12.121 12.7062 11.676L12.4142 11.326C12.0852 10.931 11.7892 10.576 11.5132 10.326C11.2122 10.054 10.8332 9.812 10.3332 9.812C9.83318 9.812 9.45518 10.054 9.15318 10.326C8.87718 10.576 8.58118 10.931 8.25318 11.326L6.42318 13.52C6.36015 13.5957 6.31264 13.6831 6.28338 13.7772C6.25411 13.8712 6.24366 13.9701 6.25262 14.0682C6.27072 14.2664 6.36678 14.4492 6.51968 14.5765C6.67258 14.7038 6.86978 14.7652 7.06792 14.7471C7.26605 14.729 7.44888 14.6329 7.57618 14.48L9.37318 12.324C9.74318 11.879 9.97218 11.608 10.1592 11.439C10.2079 11.3913 10.2627 11.3503 10.3222 11.317L10.3292 11.314L10.3332 11.313C10.3362 11.313 10.3392 11.315 10.3442 11.317C10.404 11.3502 10.4592 11.3912 10.5082 11.439C10.6952 11.609 10.9232 11.879 11.2942 12.324L11.5862 12.674C11.9152 13.069 12.2112 13.424 12.4872 13.674C12.7882 13.946 13.1672 14.188 13.6672 14.188C14.1672 14.188 14.5452 13.946 14.8472 13.674C15.1232 13.424 15.4192 13.069 15.7472 12.674L17.5762 10.48ZM22.0002 5C22.0002 5.79565 21.6841 6.55871 21.1215 7.12132C20.5589 7.68393 19.7958 8 19.0002 8C18.2045 8 17.4415 7.68393 16.8789 7.12132C16.3162 6.55871 16.0002 5.79565 16.0002 5C16.0002 4.20435 16.3162 3.44129 16.8789 2.87868C17.4415 2.31607 18.2045 2 19.0002 2C19.7958 2 20.5589 2.31607 21.1215 2.87868C21.6841 3.44129 22.0002 4.20435 22.0002 5Z" fill="#934077"/>
</svg>
