<svg width="24" height="24" viewBox="0 0 24 24" fill="none" xmlns="http://www.w3.org/2000/svg">
<path fill-rule="evenodd" clip-rule="evenodd" d="M14.8321 12.0158C14.8321 12.7669 14.5337 13.4873 14.0026 14.0184C13.4715 14.5495 12.7511 14.8479 12 14.8479C11.2489 14.8479 10.5286 14.5495 9.99746 14.0184C9.46634 13.4873 9.16797 12.7669 9.16797 12.0158C9.16797 11.2647 9.46634 10.5443 9.99746 10.0132C10.5286 9.48212 11.2489 9.18375 12 9.18375C12.7511 9.18375 13.4715 9.48212 14.0026 10.0132C14.5337 10.5443 14.8321 11.2647 14.8321 12.0158ZM12.944 12.0158C12.944 12.2662 12.8446 12.5063 12.6675 12.6833C12.4905 12.8604 12.2504 12.9598 12 12.9598C11.7497 12.9598 11.5095 12.8604 11.3325 12.6833C11.1555 12.5063 11.056 12.2662 11.056 12.0158C11.056 11.7654 11.1555 11.5253 11.3325 11.3483C11.5095 11.1712 11.7497 11.0718 12 11.0718C12.2504 11.0718 12.4905 11.1712 12.6675 11.3483C12.8446 11.5253 12.944 11.7654 12.944 12.0158Z" fill="#409384"/>
<path fill-rule="evenodd" clip-rule="evenodd" d="M11.9997 18.6239C12.8675 18.6239 13.7268 18.453 14.5286 18.1209C15.3303 17.7888 16.0588 17.3021 16.6724 16.6884C17.286 16.0748 17.7728 15.3463 18.1049 14.5446C18.4369 13.7429 18.6079 12.8836 18.6079 12.0158C18.6079 11.148 18.4369 10.2887 18.1049 9.48696C17.7728 8.68523 17.286 7.95675 16.6724 7.34313C16.0588 6.72951 15.3303 6.24276 14.5286 5.91067C13.7268 5.57858 12.8675 5.40765 11.9997 5.40765C10.2471 5.40765 8.56634 6.10387 7.32708 7.34313C6.08781 8.5824 5.3916 10.2632 5.3916 12.0158C5.3916 13.7684 6.08781 15.4492 7.32708 16.6884C8.56634 17.9277 10.2471 18.6239 11.9997 18.6239ZM11.9997 16.7359C13.2516 16.7359 14.4522 16.2386 15.3373 15.3534C16.2225 14.4682 16.7198 13.2676 16.7198 12.0158C16.7198 10.7639 16.2225 9.56336 15.3373 8.67817C14.4522 7.79299 13.2516 7.29569 11.9997 7.29569C10.7479 7.29569 9.54731 7.79299 8.66212 8.67817C7.77693 9.56336 7.27964 10.7639 7.27964 12.0158C7.27964 13.2676 7.77693 14.4682 8.66212 15.3534C9.54731 16.2386 10.7479 16.7359 11.9997 16.7359Z" fill="#409384"/>
<path fill-rule="evenodd" clip-rule="evenodd" d="M11.9999 22.4C17.7348 22.4 22.3841 17.7507 22.3841 12.0158C22.3841 6.28088 17.7348 1.63159 11.9999 1.63159C6.26502 1.63159 1.61572 6.28088 1.61572 12.0158C1.61572 17.7507 6.26502 22.4 11.9999 22.4ZM11.9999 20.512C13.1157 20.512 14.2205 20.2922 15.2513 19.8652C16.2821 19.4383 17.2187 18.8124 18.0076 18.0235C18.7966 17.2346 19.4224 16.2979 19.8494 15.2671C20.2763 14.2363 20.4961 13.1315 20.4961 12.0158C20.4961 10.9001 20.2763 9.79526 19.8494 8.76446C19.4224 7.73365 18.7966 6.79704 18.0076 6.0081C17.2187 5.21916 16.2821 4.59333 15.2513 4.16636C14.2205 3.73939 13.1157 3.51963 11.9999 3.51963C9.74661 3.51963 7.58557 4.41476 5.99223 6.0081C4.39889 7.60144 3.50376 9.76248 3.50376 12.0158C3.50376 14.2691 4.39889 16.4302 5.99223 18.0235C7.58557 19.6168 9.74661 20.512 11.9999 20.512Z" fill="#409384"/>
</svg>
