<svg width="30" height="30" viewBox="0 0 30 30" fill="none" xmlns="http://www.w3.org/2000/svg">
<path d="M7.5 17.4107V15.5357H9.375V17.4107H7.5ZM1.875 8.03571C1.875 7.04114 2.27009 6.08732 2.97335 5.38405C3.67661 4.68079 4.63044 4.28571 5.625 4.28571H18.75C19.7446 4.28571 20.6984 4.68079 21.4016 5.38405C22.1049 6.08732 22.5 7.04114 22.5 8.03571V20.2232C22.5 20.4718 22.5988 20.7103 22.7746 20.8861C22.9504 21.0619 23.1889 21.1607 23.4375 21.1607C23.6861 21.1607 23.9246 21.0619 24.1004 20.8861C24.2762 20.7103 24.375 20.4718 24.375 20.2232V8.03571C25.3696 8.03571 26.3234 8.43079 27.0266 9.13406C27.7299 9.83732 28.125 10.7911 28.125 11.7857V20.2232C28.125 21.4664 27.6311 22.6587 26.7521 23.5378C25.873 24.4168 24.6807 24.9107 23.4375 24.9107H6.5625C5.3193 24.9107 4.12701 24.4168 3.24794 23.5378C2.36886 22.6587 1.875 21.4664 1.875 20.2232V8.03571ZM6.5625 9.91071C6.31386 9.91071 6.0754 10.0095 5.89959 10.1853C5.72377 10.3611 5.625 10.5996 5.625 10.8482C5.625 11.0968 5.72377 11.3353 5.89959 11.5111C6.0754 11.6869 6.31386 11.7857 6.5625 11.7857H17.8125C18.0611 11.7857 18.2996 11.6869 18.4754 11.5111C18.6512 11.3353 18.75 11.0968 18.75 10.8482C18.75 10.5996 18.6512 10.3611 18.4754 10.1853C18.2996 10.0095 18.0611 9.91071 17.8125 9.91071H6.5625ZM6.5625 13.6607C6.31386 13.6607 6.0754 13.7595 5.89959 13.9353C5.72377 14.1111 5.625 14.3496 5.625 14.5982V18.3482C5.625 18.5968 5.72377 18.8353 5.89959 19.0111C6.0754 19.1869 6.31386 19.2857 6.5625 19.2857H10.3125C10.5611 19.2857 10.7996 19.1869 10.9754 19.0111C11.1512 18.8353 11.25 18.5968 11.25 18.3482V14.5982C11.25 14.3496 11.1512 14.1111 10.9754 13.9353C10.7996 13.7595 10.5611 13.6607 10.3125 13.6607H6.5625ZM14.0625 13.6607C13.8139 13.6607 13.5754 13.7595 13.3996 13.9353C13.2238 14.1111 13.125 14.3496 13.125 14.5982C13.125 14.8468 13.2238 15.0853 13.3996 15.2611C13.5754 15.4369 13.8139 15.5357 14.0625 15.5357H17.8125C18.0611 15.5357 18.2996 15.4369 18.4754 15.2611C18.6512 15.0853 18.75 14.8468 18.75 14.5982C18.75 14.3496 18.6512 14.1111 18.4754 13.9353C18.2996 13.7595 18.0611 13.6607 17.8125 13.6607H14.0625ZM14.0625 17.4107C13.8139 17.4107 13.5754 17.5095 13.3996 17.6853C13.2238 17.8611 13.125 18.0996 13.125 18.3482C13.125 18.5968 13.2238 18.8353 13.3996 19.0111C13.5754 19.1869 13.8139 19.2857 14.0625 19.2857H17.8125C18.0611 19.2857 18.2996 19.1869 18.4754 19.0111C18.6512 18.8353 18.75 18.5968 18.75 18.3482C18.75 18.0996 18.6512 17.8611 18.4754 17.6853C18.2996 17.5095 18.0611 17.4107 17.8125 17.4107H14.0625Z" fill="#409343" fill-opacity="0.94"/>
</svg>
