<svg width="26" height="26" viewBox="0 0 26 26" fill="none" xmlns="http://www.w3.org/2000/svg">
<path d="M12.7312 2.16666C13.5219 2.16666 14.2802 2.48076 14.8393 3.03987C15.3984 3.59898 15.7125 4.35729 15.7125 5.14799V20.8542C15.7125 21.2457 15.6354 21.6334 15.4856 21.9951C15.3357 22.3568 15.1161 22.6854 14.8393 22.9623C14.5624 23.2391 14.2338 23.4587 13.8721 23.6085C13.5104 23.7584 13.1227 23.8355 12.7312 23.8355C12.3397 23.8355 11.952 23.7584 11.5903 23.6085C11.2286 23.4587 10.8999 23.2391 10.623 22.9623C10.3462 22.6854 10.1266 22.3568 9.97678 21.9951C9.82695 21.6334 9.74984 21.2457 9.74984 20.8542V5.14799C9.74984 4.35729 10.0639 3.59898 10.623 3.03987C11.1822 2.48076 11.9405 2.16666 12.7312 2.16666ZM20.3145 7.58332C21.1052 7.58332 21.8635 7.89743 22.4226 8.45653C22.9817 9.01564 23.2958 9.77396 23.2958 10.5647V20.8542C23.2958 21.6449 22.9817 22.4032 22.4226 22.9623C21.8635 23.5214 21.1052 23.8355 20.3145 23.8355C19.5238 23.8355 18.7655 23.5214 18.2064 22.9623C17.6473 22.4032 17.3332 21.6449 17.3332 20.8542V10.5647C17.3332 9.77396 17.6473 9.01564 18.2064 8.45653C18.7655 7.89743 19.5238 7.58332 20.3145 7.58332ZM5.14784 13C5.53935 13 5.92703 13.0771 6.28874 13.2269C6.65046 13.3768 6.97912 13.5964 7.25596 13.8732C7.5328 14.15 7.7524 14.4787 7.90223 14.8404C8.05206 15.2021 8.12917 15.5898 8.12917 15.9813V20.8542C8.12917 21.6449 7.81507 22.4032 7.25596 22.9623C6.69685 23.5214 5.93854 23.8355 5.14784 23.8355C4.35714 23.8355 3.59882 23.5214 3.03972 22.9623C2.48061 22.4032 2.1665 21.6449 2.1665 20.8542V15.9813C2.1665 15.1906 2.48061 14.4323 3.03972 13.8732C3.59882 13.3141 4.35714 13 5.14784 13Z" fill="#939040"/>
</svg>
