<svg width="30" height="30" viewBox="0 0 30 30" fill="none" xmlns="http://www.w3.org/2000/svg">
<path d="M27.8125 26.2232C27.8125 26.4884 27.7071 26.7428 27.5196 26.9303C27.3321 27.1178 27.0777 27.2232 26.8125 27.2232H2.8125C2.54728 27.2232 2.29293 27.1178 2.10539 26.9303C1.91786 26.7428 1.8125 26.4884 1.8125 26.2232C1.8125 25.958 1.91786 25.7036 2.10539 25.5161C2.29293 25.3286 2.54728 25.2232 2.8125 25.2232H26.8125C27.0777 25.2232 27.3321 25.3286 27.5196 25.5161C27.7071 25.7036 27.8125 25.958 27.8125 26.2232ZM27.8125 7.22321V21.2232C27.8125 21.7536 27.6018 22.2623 27.2267 22.6374C26.8516 23.0125 26.3429 23.2232 25.8125 23.2232H3.8125C3.28207 23.2232 2.77336 23.0125 2.39829 22.6374C2.02321 22.2623 1.8125 21.7536 1.8125 21.2232V7.22321C1.8125 6.69277 2.02321 6.18406 2.39829 5.80899C2.77336 5.43392 3.28207 5.22321 3.8125 5.22321H25.8125C26.3429 5.22321 26.8516 5.43392 27.2267 5.80899C27.6018 6.18406 27.8125 6.69277 27.8125 7.22321ZM19.3125 14.2232C19.3124 14.0549 19.2699 13.8893 19.1889 13.7418C19.1078 13.5944 18.9908 13.4697 18.8487 13.3795L13.3488 9.87946C13.1976 9.78341 13.0234 9.72973 12.8444 9.72402C12.6653 9.71832 12.4881 9.76079 12.3311 9.84701C12.1741 9.93323 12.0432 10.06 11.9519 10.2142C11.8607 10.3683 11.8126 10.5441 11.8125 10.7232V17.7232C11.8126 17.9023 11.8607 18.0781 11.9519 18.2322C12.0432 18.3864 12.1741 18.5132 12.3311 18.5994C12.4881 18.6856 12.6653 18.7281 12.8444 18.7224C13.0234 18.7167 13.1976 18.663 13.3488 18.567L18.8487 15.067C18.9908 14.9767 19.1078 14.8521 19.1889 14.7046C19.2699 14.5571 19.3124 14.3915 19.3125 14.2232Z" fill="#407093"/>
</svg>
