<svg width="30" height="30" viewBox="0 0 30 30" fill="none" xmlns="http://www.w3.org/2000/svg">
<path d="M21.0833 5.53571H10.4167C9.68333 5.53571 9.08333 6.13571 9.08333 6.86904V24.2024C9.08333 24.9357 9.68333 25.5357 10.4167 25.5357H21.0833C21.8167 25.5357 22.4167 24.9357 22.4167 24.2024V6.86904C22.4167 6.13571 21.8167 5.53571 21.0833 5.53571ZM5.08333 8.20237C4.35 8.20237 3.75 8.80237 3.75 9.53571V21.5357C3.75 22.269 4.35 22.869 5.08333 22.869C5.81667 22.869 6.41667 22.269 6.41667 21.5357V9.53571C6.41667 8.80237 5.81667 8.20237 5.08333 8.20237ZM26.4167 8.20237C25.6833 8.20237 25.0833 8.80237 25.0833 9.53571V21.5357C25.0833 22.269 25.6833 22.869 26.4167 22.869C27.15 22.869 27.75 22.269 27.75 21.5357V9.53571C27.75 8.80237 27.15 8.20237 26.4167 8.20237Z" fill="#934040"/>
</svg>
